M48
; DRILL file {KiCad (5.1.4)-1} date 25-Mar-21 14:40:48
; FORMAT={-:-/ absolute / inch / decimal}
; #@! TF.CreationDate,2021-03-25T14:40:48-07:00
; #@! TF.GenerationSoftware,Kicad,Pcbnew,(5.1.4)-1
; #@! TF.FileFunction,NonPlated,1,2,NPTH
FMAT,2
INCH
T1C0.0256
T2C0.0670
T3C0.0689
T4C0.0820
T5C0.0860
T6C0.1200
T7C0.1570
%
G90
G05
T1
X3.0587Y-3.6119
X3.2862Y-3.6119
T2
X2.8812Y-6.0598
X3.2812Y-6.0598
X5.8787Y-7.5608
X6.2787Y-7.5608
X4.5662Y-7.5608
X4.9662Y-7.5608
X2.6912Y-7.5608
X3.0912Y-7.5608
X12.91Y-5.3108
X13.31Y-5.3108
X8.8789Y-7.5603
X9.2789Y-7.5603
X12.7224Y-4.5608
X13.1224Y-4.5608
X7.3787Y-7.5608
X7.7787Y-7.5608
X2.7874Y-5.3098
X3.1874Y-5.3098
X3.0662Y-6.8108
X3.4662Y-6.8108
X12.6287Y-6.0608
X13.0287Y-6.0608
X12.0662Y-6.8108
X12.4662Y-6.8108
X3.6287Y-7.5608
X4.0287Y-7.5608
T3
X7.2849Y-6.8108
X7.6849Y-6.8108
X4.4724Y-5.3108
X4.8724Y-5.3108
X10.4724Y-5.3108
X10.8724Y-5.3108
X6.3474Y-4.5608
X6.7474Y-4.5608
X4.2849Y-6.8108
X4.6849Y-6.8108
X5.4099Y-6.0608
X5.8099Y-6.0608
X9.3474Y-3.8108
X9.7474Y-3.8108
X5.0349Y-6.8108
X5.4349Y-6.8108
X13.0974Y-3.8108
X13.4974Y-3.8108
X13.8474Y-6.8108
X14.2474Y-6.8108
X9.91Y-6.0608
X10.31Y-6.0608
X10.0974Y-4.5608
X10.4974Y-4.5608
X12.3474Y-7.5608
X12.7474Y-7.5608
X10.66Y-6.0608
X11.06Y-6.0608
X10.0974Y-7.5608
X10.4974Y-7.5608
X3.3474Y-3.8108
X3.7474Y-3.8108
X6.7224Y-5.3108
X7.1224Y-5.3108
X2.5974Y-4.5608
X2.9974Y-4.5608
X13.8474Y-4.5608
X14.2474Y-4.5608
X7.0974Y-3.8108
X7.4974Y-3.8108
X9.5349Y-6.8108
X9.9349Y-6.8108
X11.9724Y-5.3108
X12.3724Y-5.3108
X13.8474Y-6.0608
X14.2474Y-6.0608
X8.9724Y-5.3108
X9.3724Y-5.3108
X4.8474Y-3.8108
X5.2474Y-3.8108
X7.4724Y-5.3108
X7.8724Y-5.3108
X8.5974Y-3.8108
X8.9974Y-3.8108
X7.0974Y-4.5608
X7.4974Y-4.5608
X10.8474Y-7.5608
X11.2474Y-7.5608
X11.41Y-6.0608
X11.81Y-6.0608
X11.5974Y-3.8108
X11.9974Y-3.8108
X4.8474Y-4.5608
X5.2474Y-4.5608
X11.0349Y-6.8108
X11.4349Y-6.8108
X7.66Y-6.0608
X8.06Y-6.0608
X10.0974Y-3.8108
X10.4974Y-3.8108
X8.5974Y-4.5608
X8.9974Y-4.5608
X11.5974Y-7.5608
X11.9974Y-7.5608
X3.9099Y-6.0608
X4.3099Y-6.0608
X10.8474Y-4.5608
X11.2474Y-4.5608
X8.0349Y-6.8108
X8.4349Y-6.8108
X10.2849Y-6.8108
X10.6849Y-6.8108
X5.7849Y-6.8108
X6.1849Y-6.8108
X6.1599Y-6.0608
X6.5599Y-6.0608
X5.5974Y-3.8108
X5.9974Y-3.8108
X11.2224Y-5.3108
X11.6224Y-5.3108
X11.5974Y-4.5608
X11.9974Y-4.5608
X4.0974Y-3.8108
X4.4974Y-3.8108
X13.0974Y-6.8108
X13.4974Y-6.8108
X5.9724Y-5.3108
X6.3724Y-5.3108
X4.0974Y-4.5608
X4.4974Y-4.5608
X9.16Y-6.0608
X9.56Y-6.0608
X3.3474Y-4.5608
X3.7474Y-4.5608
X4.6599Y-6.0608
X5.0599Y-6.0608
X10.8474Y-3.8108
X11.2474Y-3.8108
X6.91Y-6.0608
X7.31Y-6.0608
X8.7849Y-6.8108
X9.1849Y-6.8108
X12.3474Y-3.8108
X12.7474Y-3.8108
X7.8474Y-4.5608
X8.2474Y-4.5608
X9.3474Y-4.5608
X9.7474Y-4.5608
X13.0974Y-7.5608
X13.4974Y-7.5608
X8.41Y-6.0608
X8.81Y-6.0608
X5.5974Y-4.5608
X5.9974Y-4.5608
X13.8474Y-7.5608
X14.2474Y-7.5608
X9.7224Y-5.3108
X10.1224Y-5.3108
X3.7224Y-5.3108
X4.1224Y-5.3108
X8.2224Y-5.3108
X8.6224Y-5.3108
X6.3474Y-3.8108
X6.7474Y-3.8108
X6.5349Y-6.8108
X6.9349Y-6.8108
X5.2224Y-5.3108
X5.6224Y-5.3108
X7.8474Y-3.8108
X8.2474Y-3.8108
X13.8474Y-5.3108
X14.2474Y-5.3108
T4
X6.0787Y-7.3608
X9.5474Y-3.6108
X9.9224Y-5.1108
X10.2974Y-7.3608
X4.1099Y-5.8608
X2.8912Y-7.3608
X8.9849Y-6.6108
X9.5474Y-4.3608
X5.4224Y-5.1108
X11.7974Y-7.3608
X5.0474Y-3.6108
X10.4849Y-6.6108
X2.9849Y-5.1108
X10.6724Y-5.1108
X4.2974Y-3.6108
X8.61Y-5.8608
X3.9224Y-5.1108
X6.3599Y-5.8608
X13.2974Y-3.6108
X10.86Y-5.8608
X2.7974Y-4.3608
X7.6724Y-5.1108
X9.36Y-5.8608
X11.7974Y-4.3608
X11.2349Y-6.6108
X5.7974Y-4.3608
X13.2974Y-6.6108
X4.7662Y-7.3608
X10.2974Y-3.6108
X14.0474Y-5.1108
X4.4849Y-6.6108
X11.0474Y-4.3608
X4.6724Y-5.1108
X9.0789Y-7.3603
X8.7974Y-3.6108
X9.7349Y-6.6108
X14.0474Y-4.3608
X6.1724Y-5.1108
X13.2974Y-7.3608
X5.7974Y-3.6108
X12.5474Y-7.3608
X5.0474Y-4.3608
X3.0787Y-5.8608
X7.86Y-5.8608
X7.2974Y-3.6108
X12.5474Y-3.6108
X14.0474Y-5.8608
X14.0474Y-3.6108
X12.1724Y-5.1108
X6.5474Y-3.6108
X12.8287Y-5.8608
X7.2974Y-4.3608
X8.4224Y-5.1108
X7.4849Y-6.6108
X4.2974Y-4.3608
X12.2662Y-6.6108
X3.8287Y-7.3608
X11.4224Y-5.1108
X7.5787Y-7.7608
X8.0474Y-3.6108
X5.6099Y-5.8608
X5.9849Y-6.6108
X11.0474Y-3.6108
X10.11Y-5.8608
X12.9224Y-4.3608
X13.11Y-5.1108
X11.0474Y-7.3608
X3.5474Y-3.6108
X7.11Y-5.8608
X6.5474Y-4.3608
X6.9224Y-5.1108
X14.0474Y-7.3608
X11.7974Y-3.6108
X11.61Y-5.8608
X8.0474Y-4.3608
X4.8599Y-5.8608
X14.0474Y-6.6108
X5.2349Y-6.6108
X3.5474Y-4.3608
X9.1724Y-5.1108
X2.7974Y-3.6108
X3.2662Y-6.6108
X8.7974Y-4.3608
X8.2349Y-6.6108
X10.2974Y-4.3608
X6.7349Y-6.6108
T6
X13.01Y-5.5108
X13.26Y-5.4108
X7.3849Y-7.0108
X7.6349Y-6.9108
X4.5724Y-5.5108
X4.8224Y-5.4108
X8.6089Y-7.8353
X8.9789Y-7.7603
X9.2289Y-7.6603
X9.5489Y-7.8353
X10.5724Y-5.5108
X10.8224Y-5.4108
X6.4474Y-4.7608
X6.6974Y-4.6608
X4.3849Y-7.0108
X4.6349Y-6.9108
X5.5099Y-6.2608
X5.7599Y-6.1608
X9.4474Y-4.0108
X9.6974Y-3.9108
X5.1349Y-7.0108
X5.3849Y-6.9108
X12.4524Y-4.2858
X12.8224Y-4.7608
X13.0724Y-4.6608
X13.3924Y-4.2858
X13.1974Y-4.0108
X13.4474Y-3.9108
X13.9474Y-7.0108
X14.1974Y-6.9108
X10.01Y-6.2608
X10.26Y-6.1608
X10.1974Y-4.7608
X10.4474Y-4.6608
X12.4474Y-7.7608
X12.6974Y-7.6608
X7.4287Y-7.4608
X7.6787Y-7.3608
X10.76Y-6.2608
X11.01Y-6.1608
X10.1974Y-7.7608
X10.4474Y-7.6608
X2.8874Y-5.5098
X3.1374Y-5.4098
X2.7962Y-6.5358
X3.1662Y-7.0108
X3.4162Y-6.9108
X3.7362Y-6.5358
X12.3587Y-5.7858
X12.7287Y-6.2608
X12.9787Y-6.1608
X13.2987Y-5.7858
X3.4474Y-4.0108
X3.6974Y-3.9108
X6.8224Y-5.5108
X7.0724Y-5.4108
X2.6974Y-4.7608
X2.9474Y-4.6608
X13.9474Y-4.7608
X14.1974Y-4.6608
X7.1974Y-4.0108
X7.4474Y-3.9108
X2.581Y-3.8024
X3.0219Y-3.8024
X9.6349Y-7.0108
X9.8849Y-6.9108
X12.0724Y-5.5108
X12.3224Y-5.4108
X13.9474Y-6.2608
X14.1974Y-6.1608
X9.0724Y-5.5108
X9.3224Y-5.4108
X4.9474Y-4.0108
X5.1974Y-3.9108
X12.1662Y-7.0108
X12.4162Y-6.9108
X7.5724Y-5.5108
X7.8224Y-5.4108
X8.6974Y-4.0108
X8.9474Y-3.9108
X7.1974Y-4.7608
X7.4474Y-4.6608
X10.9474Y-7.7608
X11.1974Y-7.6608
X11.51Y-6.2608
X11.76Y-6.1608
X11.6974Y-4.0108
X11.9474Y-3.9108
X4.9474Y-4.7608
X5.1974Y-4.6608
X11.1349Y-7.0108
X11.3849Y-6.9108
X7.76Y-6.2608
X8.01Y-6.1608
X10.1974Y-4.0108
X10.4474Y-3.9108
X8.6974Y-4.7608
X8.9474Y-4.6608
X11.6974Y-7.7608
X11.9474Y-7.6608
X4.0099Y-6.2608
X4.2599Y-6.1608
X10.9474Y-4.7608
X11.1974Y-4.6608
X3.7287Y-7.7608
X3.9787Y-7.6608
X8.1349Y-7.0108
X8.3849Y-6.9108
X10.3849Y-7.0108
X10.6349Y-6.9108
X5.8849Y-7.0108
X6.1349Y-6.9108
X6.2599Y-6.2608
X6.5099Y-6.1608
X5.6974Y-4.0108
X5.9474Y-3.9108
X11.3224Y-5.5108
X11.5724Y-5.4108
X11.6974Y-4.7608
X11.9474Y-4.6608
X4.1974Y-4.0108
X4.4474Y-3.9108
X13.1974Y-7.0108
X13.4474Y-6.9108
X6.0724Y-5.5108
X6.3224Y-5.4108
X4.1974Y-4.7608
X4.4474Y-4.6608
X9.26Y-6.2608
X9.51Y-6.1608
X2.9812Y-6.2598
X3.2312Y-6.1598
X5.6087Y-7.8358
X5.9787Y-7.7608
X6.2287Y-7.6608
X6.5487Y-7.8358
X3.4474Y-4.7608
X3.6974Y-4.6608
X4.6662Y-7.7608
X4.9162Y-7.6608
X4.7599Y-6.2608
X5.0099Y-6.1608
X10.9474Y-4.0108
X11.1974Y-3.9108
X13.8305Y-3.8014
X14.2714Y-3.8014
X7.01Y-6.2608
X7.26Y-6.1608
X8.8849Y-7.0108
X9.1349Y-6.9108
X12.4474Y-4.0108
X12.6974Y-3.9108
X7.9474Y-4.7608
X8.1974Y-4.6608
X2.7912Y-7.7608
X3.0412Y-7.6608
X9.4474Y-4.7608
X9.6974Y-4.6608
X13.1974Y-7.7608
X13.4474Y-7.6608
X8.51Y-6.2608
X8.76Y-6.1608
X5.6974Y-4.7608
X5.9474Y-4.6608
X13.9474Y-7.7608
X14.1974Y-7.6608
X9.8224Y-5.5108
X10.0724Y-5.4108
X3.8224Y-5.5108
X4.0724Y-5.4108
X8.3224Y-5.5108
X8.5724Y-5.4108
X6.4474Y-4.0108
X6.6974Y-3.9108
X2.6974Y-4.0108
X2.9474Y-3.9108
X6.6349Y-7.0108
X6.8849Y-6.9108
X5.3224Y-5.5108
X5.5724Y-5.4108
X7.9474Y-4.0108
X8.1974Y-3.9108
X13.9474Y-4.0108
X14.1974Y-3.9108
X13.9474Y-5.5108
X14.1974Y-5.4108
T7
X4.8599Y-6.0608
X11.0474Y-3.8108
X7.11Y-6.0608
X8.9849Y-6.8108
X12.5474Y-3.8108
X8.0474Y-4.5608
X2.8912Y-7.5608
X9.5474Y-4.5608
X13.2974Y-7.5608
X8.61Y-6.0608
X5.7974Y-4.5608
X14.0474Y-7.5608
X9.9224Y-5.3108
X3.9224Y-5.3108
X8.4224Y-5.3108
X6.5474Y-3.8108
X2.7974Y-3.8108
X6.7349Y-6.8108
X5.4224Y-5.3108
X8.0474Y-3.8108
X14.0474Y-3.8108
X14.0474Y-5.3108
X13.11Y-5.3108
X7.4849Y-6.8108
X4.6724Y-5.3108
X8.6089Y-7.2353
X9.0789Y-7.5603
X9.5489Y-7.2353
X10.6724Y-5.3108
X6.5474Y-4.5608
X4.4849Y-6.8108
X5.6099Y-6.0608
X9.5474Y-3.8108
X5.2349Y-6.8108
X12.4524Y-4.8858
X12.9224Y-4.5608
X13.3924Y-4.8858
X13.2974Y-3.8108
X14.0474Y-6.8108
X10.11Y-6.0608
X10.2974Y-4.5608
X12.5474Y-7.5608
X7.5787Y-7.5608
X10.86Y-6.0608
X10.2974Y-7.5608
X2.9874Y-5.3098
X2.7962Y-7.1358
X3.2662Y-6.8108
X3.7362Y-7.1358
X12.3587Y-6.3858
X12.8287Y-6.0608
X13.2987Y-6.3858
X3.5474Y-3.8108
X6.9224Y-5.3108
X2.7974Y-4.5608
X14.0474Y-4.5608
X7.2974Y-3.8108
X9.7349Y-6.8108
X12.1724Y-5.3108
X14.0474Y-6.0608
X9.1724Y-5.3108
X5.0474Y-3.8108
X12.2662Y-6.8108
X7.6724Y-5.3108
X8.7974Y-3.8108
X7.2974Y-4.5608
X11.0474Y-7.5608
X11.61Y-6.0608
X11.7974Y-3.8108
X5.0474Y-4.5608
X11.2349Y-6.8108
X7.86Y-6.0608
X10.2974Y-3.8108
X8.7974Y-4.5608
X11.7974Y-7.5608
X4.1099Y-6.0608
X11.0474Y-4.5608
X3.8287Y-7.5608
X8.2349Y-6.8108
X10.4849Y-6.8108
X5.9849Y-6.8108
X6.3599Y-6.0608
X5.7974Y-3.8108
X11.4224Y-5.3108
X11.7974Y-4.5608
X4.2974Y-3.8108
X13.2974Y-6.8108
X6.1724Y-5.3108
X4.2974Y-4.5608
X9.36Y-6.0608
X3.0812Y-6.0598
X5.6087Y-7.2358
X6.0787Y-7.5608
X6.5487Y-7.2358
X3.5474Y-4.5608
X4.7662Y-7.5608
T5
G00X3.8675Y-3.8088
M15
G01X3.9784Y-3.8088
M16
G05
G00X12.867Y-7.5588
M15
G01X12.9779Y-7.5588
M16
G05
G00X6.867Y-3.8088
M15
G01X6.9779Y-3.8088
M16
G05
G00X12.8665Y-3.8083
M15
G01X12.9774Y-3.8083
M16
G05
G00X7.4295Y-6.0583
M15
G01X7.5404Y-6.0583
M16
G05
G00X8.742Y-5.3098
M15
G01X8.8529Y-5.3098
M16
G05
G00X4.8045Y-6.8078
M15
G01X4.9154Y-6.8078
M16
G05
G00X9.867Y-3.8088
M15
G01X9.9779Y-3.8088
M16
G05
G00X4.2415Y-5.3088
M15
G01X4.3524Y-5.3088
M16
G05
T0
M30
