M48
; DRILL file {KiCad (5.1.4)-1} date 25-Mar-21 14:40:48
; FORMAT={-:-/ absolute / inch / decimal}
; #@! TF.CreationDate,2021-03-25T14:40:48-07:00
; #@! TF.GenerationSoftware,Kicad,Pcbnew,(5.1.4)-1
; #@! TF.FileFunction,Plated,1,2,PTH
FMAT,2
INCH
T1C0.0120
T2C0.0236
T3C0.0315
T4C0.0433
T5C0.0860
%
G90
G05
T1
X2.4464Y-7.3778
X2.4484Y-4.9118
X2.4484Y-6.1998
X2.4504Y-5.5238
X2.4504Y-6.8538
X2.4704Y-3.9398
X2.4724Y-7.8738
X2.4784Y-4.3618
X2.5044Y-3.5178
X2.5309Y-4.3383
X2.5364Y-4.5978
X2.5624Y-4.8398
X2.5744Y-4.1378
X2.5784Y-6.8058
X2.5784Y-7.2658
X2.5879Y-4.3973
X2.5884Y-5.3558
X2.5884Y-6.1438
X2.6064Y-7.5398
X2.6104Y-7.3878
X2.6104Y-7.4258
X2.6123Y-4.852
X2.6164Y-4.6798
X2.6179Y-4.2513
X2.6204Y-3.6618
X2.6404Y-4.3638
X2.642Y-4.8223
X2.6474Y-5.6278
X2.6474Y-6.94
X2.6504Y-5.2838
X2.6514Y-6.0708
X2.6624Y-6.5158
X2.6624Y-6.9918
X2.6719Y-4.3133
X2.6753Y-4.915
X2.6834Y-7.0598
X2.7104Y-5.1058
X2.7164Y-4.6658
X2.7184Y-7.3218
X2.7304Y-4.3038
X2.7304Y-6.2538
X2.7704Y-7.6138
X2.7784Y-4.8298
X2.7844Y-4.2578
X2.7904Y-5.0498
X2.7904Y-6.7938
X2.8124Y-6.9878
X2.8204Y-4.0278
X2.8244Y-7.3038
X2.8364Y-5.7978
X2.8555Y-3.5539
X2.8644Y-4.2778
X2.8764Y-3.9878
X2.8784Y-4.9158
X2.8884Y-7.2558
X2.9004Y-4.2538
X2.9028Y-3.5923
X2.9044Y-4.8018
X2.9184Y-5.0538
X2.9184Y-5.1678
X2.9224Y-3.7758
X2.9252Y-6.5444
X2.9264Y-7.3038
X2.9344Y-5.6038
X2.9477Y-3.5138
X2.9544Y-6.1738
X2.9564Y-5.9438
X2.9584Y-7.2798
X2.9604Y-6.6838
X2.9704Y-4.4298
X2.9704Y-6.5408
X2.9784Y-6.3938
X2.9804Y-4.1518
X2.9804Y-5.9678
X2.9844Y-5.9138
X2.9924Y-7.2558
X2.9964Y-3.6938
X3.0064Y-5.9958
X3.0084Y-5.5978
X3.0144Y-4.9258
X3.0204Y-7.0798
X3.0224Y-5.4338
X3.0324Y-5.2078
X3.0524Y-5.0298
X3.065Y-4.0689
X3.0694Y-4.1168
X3.0724Y-6.6738
X3.0824Y-5.0058
X3.1054Y-5.0298
X3.1064Y-4.4878
X3.1164Y-4.9818
X3.1224Y-3.8078
X3.1264Y-4.1758
X3.1324Y-4.4498
X3.1358Y-3.9882
X3.141Y-3.622
X3.1484Y-5.1818
X3.1484Y-6.5258
X3.1584Y-4.4298
X3.1584Y-5.9918
X3.1664Y-5.1178
X3.1684Y-5.5038
X3.1824Y-5.9678
X3.1964Y-6.6978
X3.1984Y-6.5498
X3.2064Y-5.5958
X3.2144Y-5.0538
X3.2244Y-7.7898
X3.2252Y-3.6221
X3.2344Y-4.6118
X3.2384Y-4.3658
X3.2384Y-5.0298
X3.2404Y-7.3558
X3.2484Y-5.7198
X3.2504Y-5.6878
X3.2504Y-5.8178
X3.2524Y-6.4018
X3.2584Y-5.2718
X3.2584Y-5.9018
X3.2598Y-4.1004
X3.2598Y-4.1654
X3.2624Y-5.0058
X3.2864Y-3.8838
X3.3004Y-5.8398
X3.3064Y-4.8318
X3.3104Y-5.2818
X3.3264Y-5.8578
X3.3292Y-3.6897
X3.3304Y-6.5218
X3.3344Y-6.6738
X3.3366Y-4.1181
X3.3444Y-5.6538
X3.3484Y-4.3583
X3.3564Y-5.8598
X3.3587Y-5.9418
X3.3664Y-5.5958
X3.376Y-4.1516
X3.3764Y-6.2858
X3.3784Y-5.6558
X3.3864Y-5.8578
X3.389Y-5.9613
X3.3924Y-5.9918
X3.3944Y-6.5498
X3.3944Y-6.6575
X3.4027Y-6.521
X3.4144Y-5.1178
X3.423Y-4.251
X3.4364Y-4.2778
X3.4364Y-6.0498
X3.4424Y-7.6838
X3.4484Y-5.6578
X3.4484Y-5.7318
X3.4504Y-5.5618
X3.4504Y-3.7098
X3.4504Y-5.5078
X3.4684Y-6.2858
X3.4724Y-7.0818
X3.4744Y-7.4758
X3.4784Y-3.7358
X3.4804Y-3.5298
X3.4804Y-4.3018
X3.5165Y-4.411
X3.5344Y-4.1058
X3.5374Y-5.4758
X3.5504Y-6.3278
X3.5604Y-6.5898
X3.5614Y-5.6256
X3.5624Y-5.5438
X3.5704Y-6.1998
X3.5764Y-4.4318
X3.5764Y-4.6698
X3.5804Y-7.4523
X3.5864Y-5.4738
X3.5864Y-5.6438
X3.5994Y-5.6718
X3.5994Y-5.6718
X3.6044Y-7.3538
X3.6144Y-3.5518
X3.6144Y-4.2778
X3.6397Y-4.8358
X3.6397Y-4.9818
X3.6404Y-4.4958
X3.6464Y-4.9098
X3.6504Y-4.2538
X3.6584Y-3.5038
X3.6764Y-6.3778
X3.6844Y-4.2298
X3.6844Y-6.7018
X3.6924Y-6.2438
X3.6943Y-5.6408
X3.7024Y-5.4138
X3.7048Y-5.6702
X3.7124Y-3.6538
X3.7124Y-4.8038
X3.7164Y-3.7078
X3.7204Y-7.6218
X3.7224Y-5.1178
X3.7224Y-6.6778
X3.7284Y-5.6238
X3.7384Y-6.7488
X3.7484Y-4.4278
X3.7488Y-5.7171
X3.7524Y-5.6758
X3.7564Y-5.4258
X3.7564Y-5.5538
X3.7564Y-7.3038
X3.7614Y-5.6218
X3.7624Y-6.3718
X3.7664Y-6.0398
X3.7724Y-6.7738
X3.7764Y-5.3558
X3.7804Y-6.9558
X3.7934Y-5.2238
X3.7944Y-5.6198
X3.7944Y-6.8078
X3.799Y-5.7178
X3.8162Y-4.872
X3.8184Y-4.7478
X3.8184Y-5.1558
X3.8264Y-5.6218
X3.8404Y-5.8813
X3.8424Y-4.5478
X3.8484Y-5.8318
X3.8504Y-6.5538
X3.8536Y-5.937
X3.8564Y-5.0538
X3.8623Y-6.328
X3.8764Y-5.9085
X3.8764Y-5.9565
X3.8784Y-5.8278
X3.8804Y-6.1438
X3.8864Y-5.1608
X3.8964Y-5.0298
X3.8964Y-7.2798
X3.8984Y-6.7518
X3.9084Y-4.3538
X3.9184Y-6.6638
X3.9204Y-5.0058
X3.9244Y-7.0198
X3.9304Y-7.2558
X3.9364Y-6.4578
X3.9394Y-6.7738
X3.9404Y-4.3316
X3.9424Y-6.5848
X3.9504Y-5.5538
X3.9564Y-7.2798
X3.9564Y-7.3358
X3.9744Y-6.5098
X3.9784Y-5.8108
X3.9824Y-7.3038
X3.9844Y-5.4318
X3.9864Y-5.6198
X3.9904Y-5.0298
X3.9924Y-6.8078
X3.9944Y-5.9978
X4.0004Y-5.8858
X4.0014Y-5.7228
X4.0053Y-5.8298
X4.0084Y-7.0898
X4.0149Y-5.6928
X4.0244Y-5.0058
X4.0304Y-4.3478
X4.0304Y-7.3758
X4.0334Y-4.2558
X4.0334Y-4.3838
X4.0344Y-3.9138
X4.0364Y-7.2318
X4.0464Y-6.7898
X4.0464Y-7.0138
X4.0484Y-5.8038
X4.0504Y-4.8298
X4.0544Y-5.6198
X4.0624Y-5.0818
X4.0624Y-5.1638
X4.0879Y-7.4523
X4.0989Y-5.617
X4.1164Y-3.6238
X4.1463Y-6.3203
X4.1519Y-5.3738
X4.1584Y-7.7738
X4.1784Y-5.7798
X4.1784Y-6.3178
X4.1924Y-4.3838
X4.1964Y-5.5538
X4.2146Y-5.8278
X4.2304Y-3.5278
X4.2304Y-4.3038
X4.2344Y-7.0778
X4.2344Y-6.0578
X4.2364Y-6.3178
X4.2504Y-5.9018
X4.2584Y-5.5538
X4.2724Y-4.1838
X4.2744Y-6.6618
X4.2864Y-6.5848
X4.2924Y-6.4898
X4.2964Y-5.8278
X4.2967Y-5.7528
X4.3024Y-5.4798
X4.3104Y-5.8998
X4.3124Y-5.1258
X4.3289Y-6.6368
X4.3414Y-5.671
X4.3484Y-3.9478
X4.3544Y-7.3678
X4.3584Y-6.9238
X4.3644Y-3.5518
X4.3644Y-4.2798
X4.3664Y-6.5818
X4.3704Y-4.4658
X4.3864Y-7.7238
X4.3964Y-4.2558
X4.4064Y-3.5038
X4.4084Y-6.4858
X4.4184Y-6.5538
X4.4224Y-5.5798
X4.4244Y-4.8298
X4.4464Y-5.8358
X4.4524Y-5.9758
X4.4724Y-6.4758
X4.4824Y-5.1258
X4.4944Y-3.6178
X4.5004Y-5.9158
X4.5124Y-3.7078
X4.5164Y-6.5098
X4.5184Y-7.0898
X4.5184Y-7.4508
X4.5244Y-5.8478
X4.5284Y-5.2423
X4.5284Y-6.3508
X4.5524Y-6.5298
X4.5544Y-5.4138
X4.5604Y-4.9578
X4.5604Y-5.0778
X4.5644Y-4.1858
X4.5644Y-5.8418
X4.5684Y-4.5058
X4.5744Y-7.3658
X4.5784Y-5.3538
X4.5844Y-6.5058
X4.6064Y-5.0538
X4.6084Y-6.6458
X4.6124Y-5.5818
X4.6124Y-6.3298
X4.6184Y-7.2558
X4.6324Y-6.8298
X4.6424Y-6.5978
X4.6464Y-5.5998
X4.6484Y-5.8498
X4.6484Y-7.6278
X4.6544Y-4.3038
X4.6604Y-7.3338
X4.6764Y-7.2798
X4.6844Y-5.623
X4.6864Y-4.2798
X4.6984Y-7.3038
X4.704Y-5.6748
X4.7164Y-6.7598
X4.7304Y-5.8918
X4.7338Y-5.671
X4.7364Y-3.8538
X4.7364Y-5.5298
X4.7404Y-4.2558
X4.7404Y-5.0298
X4.7544Y-5.6928
X4.7784Y-5.0058
X4.7924Y-5.8038
X4.7984Y-5.1678
X4.8004Y-4.8318
X4.8024Y-4.9578
X4.8044Y-3.6338
X4.8324Y-7.2798
X4.8404Y-5.1158
X4.8664Y-7.2558
X4.8684Y-6.6078
X4.8724Y-6.1978
X4.8724Y-6.8898
X4.9044Y-4.2318
X4.9284Y-5.7798
X4.9364Y-5.5538
X4.9404Y-6.4818
X4.9624Y-6.2618
X4.9664Y-5.7558
X4.9684Y-5.1198
X4.9804Y-3.5278
X4.9804Y-4.3038
X4.9864Y-6.9178
X4.9884Y-6.0558
X4.9884Y-7.4268
X4.9964Y-5.8458
X5.0304Y-4.1778
X5.0323Y-5.6518
X5.0504Y-7.2318
X5.0564Y-5.1118
X5.0564Y-5.5538
X5.0564Y-5.8698
X5.0564Y-5.9618
X5.0624Y-6.6058
X5.0624Y-6.6638
X5.0844Y-7.7718
X5.0884Y-4.8658
X5.1104Y-3.9798
X5.1144Y-3.5518
X5.1144Y-4.2798
X5.1224Y-4.9838
X5.1224Y-6.0118
X5.1504Y-3.5038
X5.1544Y-5.8578
X5.1644Y-4.2558
X5.1664Y-4.8318
X5.1684Y-6.5538
X5.1744Y-5.5798
X5.1824Y-6.0638
X5.1884Y-4.4238
X5.2104Y-7.3438
X5.2324Y-3.7078
X5.2464Y-5.1118
X5.2484Y-5.5498
X5.2584Y-3.6198
X5.2924Y-7.6798
X5.2944Y-5.6618
X5.2964Y-5.8578
X5.3024Y-6.5298
X5.3073Y-6.9181
X5.3144Y-4.1778
X5.3144Y-7.0738
X5.3144Y-7.9058
X5.3224Y-7.5378
X5.3344Y-6.5058
X5.3564Y-5.0538
X5.3564Y-6.6478
X5.3564Y-7.2558
X5.3644Y-5.5878
X5.3704Y-5.2018
X5.3944Y-4.7918
X5.4044Y-5.0298
X5.4064Y-7.2798
X5.4094Y-4.3038
X5.4104Y-3.5518
X5.4104Y-5.4328
X5.4104Y-5.6928
X5.4264Y-6.7118
X5.4304Y-4.1558
X5.4344Y-3.5038
X5.4344Y-4.2798
X5.4344Y-4.3298
X5.4374Y-7.3038
X5.4484Y-5.8538
X5.4564Y-5.0538
X5.461Y-5.0058
X5.4804Y-6.1478
X5.4838Y-3.5278
X5.4904Y-4.2558
X5.4904Y-5.6688
X5.4924Y-4.1218
X5.5044Y-5.0298
X5.5064Y-6.6118
X5.5104Y-4.3598
X5.5164Y-4.5778
X5.5224Y-5.0058
X5.5424Y-5.8038
X5.5424Y-5.9178
X5.5444Y-7.7158
X5.5447Y-7.7912
X5.5504Y-4.8278
X5.5624Y-5.1778
X5.5724Y-3.8878
X5.5824Y-3.6278
X5.5824Y-4.6618
X5.5884Y-6.4818
X5.5902Y-6.6188
X5.6204Y-4.8958
X5.6244Y-5.1118
X5.6534Y-4.9868
X5.6544Y-6.7778
X5.6704Y-6.5998
X5.6724Y-5.9448
X5.6764Y-5.7798
X5.7204Y-7.6918
X5.7244Y-5.7558
X5.7304Y-3.5278
X5.7304Y-4.3038
X5.7373Y-6.663
X5.7384Y-6.2578
X5.7484Y-7.6698
X5.7524Y-7.7278
X5.7704Y-4.2318
X5.7704Y-7.3988
X5.7704Y-7.4808
X5.7931Y-5.93
X5.7964Y-5.9618
X5.8244Y-4.9878
X5.8284Y-6.5978
X5.8464Y-7.8408
X5.8484Y-5.1178
X5.8644Y-3.5518
X5.8644Y-4.2798
X5.8724Y-7.6698
X5.8784Y-6.6188
X5.8824Y-7.1918
X5.8824Y-7.3698
X5.8864Y-4.0118
X5.8984Y-4.2558
X5.9044Y-3.5038
X5.9044Y-7.7278
X5.9184Y-6.5538
X5.9204Y-5.5778
X5.9224Y-4.4238
X5.9244Y-4.8318
X5.9484Y-5.9038
X5.9584Y-7.5478
X5.9724Y-6.3798
X5.9784Y-3.7098
X6.0004Y-6.4798
X6.0104Y-7.3038
X6.0164Y-5.1118
X6.0284Y-4.9818
X6.0424Y-6.2538
X6.0524Y-6.5298
X6.0764Y-4.2318
X6.0844Y-6.5058
X6.0924Y-7.0298
X6.1044Y-5.0568
X6.1084Y-6.6458
X6.1084Y-7.2558
X6.1124Y-5.5898
X6.1464Y-7.2798
X6.1464Y-7.7858
X6.1516Y-7.6488
X6.1544Y-4.3038
X6.1639Y-6.3578
X6.1664Y-4.3678
X6.1784Y-7.2558
X6.1864Y-4.2798
X6.1904Y-5.6928
X6.2024Y-7.3038
X6.2144Y-7.3778
X6.2364Y-4.2558
X6.2404Y-5.0498
X6.2524Y-5.5478
X6.2584Y-5.9408
X6.2784Y-5.1338
X6.2851Y-7.4294
X6.2924Y-5.8038
X6.3004Y-7.2178
X6.3024Y-4.8318
X6.3244Y-3.4598
X6.3412Y-7.8188
X6.3444Y-4.3618
X6.3444Y-4.4698
X6.3524Y-4.1578
X6.3544Y-6.4238
X6.3584Y-3.6378
X6.3584Y-7.7298
X6.3604Y-7.8418
X6.3624Y-7.4818
X6.3644Y-5.1138
X6.3844Y-6.6098
X6.3844Y-6.6638
X6.3884Y-5.7798
X6.3922Y-7.8548
X6.3924Y-7.3658
X6.4024Y-3.8578
X6.4124Y-6.7718
X6.4124Y-7.8208
X6.4222Y-7.8668
X6.4324Y-7.2858
X6.4404Y-5.4938
X6.4464Y-7.4058
X6.4555Y-5.7558
X6.4587Y-7.8786
X6.4644Y-7.5658
X6.4764Y-5.1718
X6.4804Y-3.5278
X6.4804Y-4.3038
X6.4804Y-7.8998
X6.4884Y-6.3258
X6.5104Y-3.6798
X6.5184Y-7.4318
X6.5204Y-4.1858
X6.5344Y-6.4258
X6.5364Y-6.6078
X6.538Y-5.7231
X6.5424Y-5.5998
X6.5444Y-5.9618
X6.5484Y-5.4498
X6.5664Y-6.9018
X6.5714Y-6.2318
X6.5755Y-7.3658
X6.5755Y-5.9408
X6.5944Y-7.6978
X6.5944Y-7.9078
X6.6004Y-5.3418
X6.6044Y-3.9658
X6.6084Y-7.3258
X6.6144Y-3.5518
X6.6144Y-4.2798
X6.6244Y-5.0958
X6.6304Y-4.8338
X6.6364Y-5.1998
X6.6364Y-5.5898
X6.6364Y-6.0358
X6.6444Y-6.7443
X6.6484Y-4.2558
X6.6504Y-3.5038
X6.6529Y-7.1142
X6.6544Y-7.6618
X6.6684Y-6.5538
X6.6724Y-4.4238
X6.6724Y-7.0878
X6.6744Y-5.5798
X6.6744Y-6.4158
X6.6744Y-7.5758
X6.6944Y-7.0638
X6.6944Y-7.6558
X6.6984Y-7.8918
X6.7024Y-7.7758
X6.7024Y-4.9578
X6.7144Y-7.4758
X6.7164Y-3.7058
X6.7164Y-6.9098
X6.7384Y-7.4298
X6.7544Y-7.5558
X6.7544Y-7.7858
X6.7584Y-5.0898
X6.7624Y-7.8378
X6.7641Y-5.8314
X6.771Y-7.4098
X6.7734Y-7.8838
X6.7764Y-6.4318
X6.7923Y-6.7333
X6.7984Y-7.0338
X6.8014Y-7.6115
X6.8024Y-6.5298
X6.8024Y-6.9438
X6.8024Y-7.6518
X6.8144Y-4.1858
X6.8144Y-4.8718
X6.8204Y-7.2038
X6.8234Y-7.8908
X6.8324Y-6.0858
X6.8344Y-6.5058
X6.8384Y-7.5378
X6.8564Y-5.0538
X6.8584Y-7.0858
X6.8644Y-6.3298
X6.8685Y-7.8756
X6.8695Y-7.0148
X6.8714Y-7.2958
X6.8844Y-6.8288
X6.8905Y-6.9886
X6.9024Y-5.8678
X6.9024Y-7.7658
X6.9044Y-4.3038
X6.9044Y-7.2278
X6.9044Y-7.8818
X6.9104Y-6.6878
X6.9115Y-7.0428
X6.9124Y-5.9978
X6.9124Y-6.6038
X6.9133Y-4.6638
X6.9164Y-6.1458
X6.9204Y-5.0178
X6.9224Y-3.4598
X6.9234Y-5.5818
X6.9294Y-6.9788
X6.9324Y-5.8278
X6.9324Y-7.8958
X6.9337Y-7.3646
X6.9344Y-5.4138
X6.9364Y-4.2798
X6.9364Y-6.3098
X6.9364Y-7.2518
X6.9404Y-5.9528
X6.9416Y-6.2233
X6.9484Y-6.4138
X6.9664Y-7.7738
X6.9704Y-7.3398
X6.9834Y-5.6471
X6.9864Y-4.2558
X6.9904Y-5.0298
X6.9964Y-6.4438
X7.0044Y-5.9018
X7.0104Y-6.1598
X7.0224Y-5.0058
X7.0344Y-7.9078
X7.0424Y-5.8038
X7.0464Y-6.5938
X7.0484Y-7.6078
X7.0504Y-4.8298
X7.0504Y-5.1738
X7.0504Y-7.5698
X7.0644Y-7.7198
X7.0724Y-6.3138
X7.0744Y-3.6258
X7.0822Y-7.5508
X7.0824Y-6.6418
X7.084Y-7.285
X7.0924Y-6.1578
X7.0964Y-3.9038
X7.0994Y-6.5778
X7.0994Y-6.9838
X7.1024Y-7.3086
X7.1044Y-7.4778
X7.1114Y-7.0118
X7.1464Y-7.0618
X7.1564Y-7.1598
X7.1764Y-5.7798
X7.1864Y-6.4538
X7.1864Y-7.5208
X7.2074Y-7.4908
X7.2128Y-7.417
X7.2179Y-5.7558
X7.2244Y-7.7538
X7.2264Y-6.3298
X7.2304Y-3.5278
X7.2304Y-4.3038
X7.2584Y-6.7618
X7.2704Y-4.2318
X7.2824Y-5.9598
X7.2874Y-7.5498
X7.2964Y-5.0538
X7.2964Y-5.8038
X7.3204Y-5.0298
X7.3204Y-5.7798
X7.3444Y-5.0058
X7.3444Y-5.7549
X7.3538Y-7.4391
X7.3564Y-7.8988
X7.3584Y-7.0858
X7.3644Y-3.5518
X7.3644Y-4.2798
X7.3764Y-7.7398
X7.3784Y-6.5778
X7.3884Y-4.8258
X7.3904Y-6.4538
X7.3944Y-6.7118
X7.3964Y-3.5038
X7.4024Y-4.2558
X7.4164Y-3.8058
X7.4184Y-6.5538
X7.4264Y-5.5818
X7.4364Y-5.6758
X7.4524Y-4.4238
X7.4524Y-7.5978
X7.4704Y-7.6978
X7.4984Y-3.7078
X7.5144Y-7.3498
X7.5344Y-4.7418
X7.5484Y-4.4238
X7.5494Y-5.5853
X7.5504Y-6.5298
X7.5644Y-4.9738
X7.5684Y-7.2038
X7.5764Y-4.2318
X7.5884Y-6.5058
X7.6044Y-5.0538
X7.6044Y-6.6478
X7.6124Y-6.3278
X7.6484Y-4.3038
X7.6484Y-4.7758
X7.6564Y-7.2278
X7.6724Y-3.4598
X7.6804Y-5.9598
X7.6804Y-7.4738
X7.6844Y-4.2798
X7.6884Y-7.2518
X7.6924Y-7.7358
X7.6994Y-5.6148
X7.6994Y-5.7318
X7.7124Y-6.6038
X7.7224Y-3.6178
X7.7264Y-3.8258
X7.7384Y-4.2558
X7.7384Y-5.0298
X7.7414Y-5.7318
X7.7664Y-5.5038
X7.7704Y-5.0058
X7.7822Y-6.0037
X7.7924Y-5.8038
X7.7964Y-4.8318
X7.8004Y-5.1698
X7.8024Y-5.1058
X7.8144Y-7.2278
X7.8164Y-7.0958
X7.8244Y-4.9138
X7.8484Y-5.1318
X7.8544Y-4.6558
X7.8644Y-7.2038
X7.8724Y-6.4538
X7.8724Y-6.6078
X7.8724Y-7.5858
X7.8744Y-6.7718
X7.8844Y-7.7598
X7.8984Y-3.7078
X7.9084Y-7.1118
X7.9264Y-5.7798
X7.9274Y-4.0958
X7.9324Y-4.6758
X7.9434Y-3.4798
X7.9464Y-6.6118
X7.9574Y-4.9208
X7.9584Y-5.7558
X7.9784Y-6.3478
X7.9804Y-3.5278
X7.9804Y-4.3038
X7.9859Y-7.0738
X7.9874Y-5.3008
X7.9984Y-7.4768
X8.0005Y-7.6162
X8.0014Y-7.6468
X8.0044Y-7.8588
X8.0324Y-6.4538
X8.0344Y-6.0038
X8.0384Y-6.6098
X8.0444Y-5.8978
X8.0484Y-4.1738
X8.0604Y-5.5558
X8.0664Y-4.8838
X8.0704Y-5.9278
X8.0744Y-7.4518
X8.0744Y-7.6598
X8.0764Y-3.6738
X8.0784Y-5.0898
X8.0954Y-6.4769
X8.1144Y-3.5518
X8.1144Y-4.2798
X8.1304Y-4.8318
X8.1344Y-5.0918
X8.1344Y-5.2238
X8.1384Y-4.9398
X8.1424Y-7.8588
X8.1434Y-7.4768
X8.1464Y-3.5038
X8.1464Y-7.6488
X8.1504Y-4.2558
X8.1524Y-5.8818
X8.1544Y-7.9078
X8.1584Y-5.9808
X8.1664Y-6.5538
X8.1684Y-6.4738
X8.1704Y-6.3158
X8.1764Y-5.5798
X8.1824Y-4.4218
X8.1834Y-5.1318
X8.1884Y-5.6638
X8.1944Y-5.4118
X8.2144Y-5.8038
X8.2324Y-5.7798
X8.2444Y-3.7078
X8.2444Y-6.5298
X8.2556Y-5.7539
X8.2744Y-6.5058
X8.2784Y-7.5158
X8.2824Y-6.2758
X8.3084Y-7.7338
X8.3144Y-7.2038
X8.3164Y-4.5098
X8.3164Y-5.1338
X8.3184Y-5.8918
X8.3284Y-5.6878
X8.3304Y-6.1218
X8.3364Y-7.3498
X8.3544Y-5.0538
X8.3624Y-5.5818
X8.3624Y-6.3298
X8.3864Y-4.1718
X8.3984Y-6.6458
X8.4044Y-4.3038
X8.4044Y-7.2278
X8.4124Y-7.9038
X8.4224Y-3.4598
X8.4224Y-4.8858
X8.4344Y-4.2798
X8.4364Y-7.2518
X8.4464Y-7.6218
X8.4624Y-3.6038
X8.4884Y-5.0298
X8.4884Y-7.6678
X8.4944Y-4.2558
X8.4944Y-6.7798
X8.5144Y-5.0058
X8.5384Y-5.1638
X8.5404Y-5.9878
X8.5424Y-5.8038
X8.5464Y-6.5498
X8.5504Y-4.8298
X8.5844Y-5.9258
X8.5884Y-4.1188
X8.5954Y-4.4888
X8.6014Y-4.1898
X8.6014Y-4.2198
X8.6264Y-6.3698
X8.6404Y-4.3778
X8.6444Y-6.1738
X8.6764Y-5.7798
X8.6884Y-4.4538
X8.6884Y-7.1258
X8.6884Y-7.8558
X8.7104Y-6.5398
X8.7104Y-6.8398
X8.7164Y-5.7538
X8.7304Y-3.5538
X8.7304Y-4.3038
X8.7384Y-6.3298
X8.7404Y-7.3178
X8.7424Y-6.0518
X8.7513Y-7.761
X8.7564Y-6.2778
X8.7764Y-5.5958
X8.7804Y-6.8998
X8.7864Y-6.5438
X8.8024Y-4.7878
X8.8044Y-5.9578
X8.8064Y-4.9658
X8.8234Y-7.3558
X8.8364Y-7.9118
X8.8564Y-6.5438
X8.8644Y-3.5298
X8.8644Y-4.2798
X8.8744Y-6.8998
X8.8944Y-4.9638
X8.8964Y-3.5058
X8.8964Y-4.2558
X8.8964Y-5.4178
X8.9184Y-6.5538
X8.9204Y-3.8118
X8.9224Y-4.4218
X8.9244Y-4.8238
X8.9244Y-5.5778
X8.9264Y-5.7578
X8.9284Y-7.3998
X8.9304Y-7.0758
X8.9404Y-6.3658
X8.9563Y-7.1318
X8.9564Y-7.5338
X8.9664Y-4.3618
X8.9784Y-3.7118
X8.9844Y-4.9478
X8.9864Y-5.2238
X9.0044Y-6.4878
X9.0124Y-7.3038
X9.0124Y-7.4606
X9.0284Y-5.1858
X9.0424Y-6.0958
X9.0469Y-4.9447
X9.0504Y-5.7738
X9.0524Y-6.5298
X9.0764Y-4.5438
X9.0803Y-4.9102
X9.0844Y-6.5058
X9.0984Y-6.7778
X9.1044Y-5.1848
X9.1044Y-5.5878
X9.1064Y-5.0538
X9.1084Y-6.3298
X9.1204Y-6.6458
X9.1324Y-6.5938
X9.1364Y-6.1438
X9.1364Y-6.8318
X9.1464Y-7.2798
X9.1504Y-4.3638
X9.1564Y-4.3038
X9.1724Y-3.4598
X9.1824Y-7.2558
X9.1844Y-5.7418
X9.1864Y-4.2798
X9.2124Y-5.9998
X9.2204Y-7.4258
X9.2384Y-4.2558
X9.2404Y-5.0298
X9.2724Y-5.0058
X9.2764Y-3.6378
X9.2904Y-7.2558
X9.2944Y-4.8358
X9.2944Y-5.8038
X9.3204Y-5.1738
X9.3364Y-7.2798
X9.3424Y-6.6098
X9.3744Y-4.3618
X9.3757Y-7.2831
X9.3764Y-6.4738
X9.4224Y-7.0358
X9.4284Y-5.7798
X9.4284Y-7.1278
X9.4604Y-5.7558
X9.4744Y-7.8598
X9.4804Y-3.5538
X9.4804Y-4.3038
X9.4884Y-6.2618
X9.5464Y-5.6198
X9.5484Y-5.9558
X9.5524Y-7.5698
X9.5824Y-6.6158
X9.6044Y-5.1178
X9.6044Y-6.4738
X9.6144Y-3.5298
X9.6144Y-4.2798
X9.6224Y-7.4338
X9.6224Y-7.9098
X9.6464Y-3.5058
X9.6564Y-4.2558
X9.6584Y-6.7118
X9.6624Y-3.8138
X9.6684Y-6.5538
X9.6724Y-4.4218
X9.6724Y-4.8358
X9.6724Y-5.5798
X9.7204Y-4.9298
X9.7204Y-5.1178
X9.7224Y-3.7098
X9.7224Y-5.2278
X9.7504Y-6.3778
X9.7584Y-4.3658
X9.7751Y-5.3909
X9.7784Y-7.7678
X9.7864Y-6.4738
X9.7924Y-6.2578
X9.7984Y-5.4298
X9.8024Y-6.5298
X9.8032Y-5.3511
X9.8044Y-5.1498
X9.8304Y-6.5058
X9.8544Y-7.2558
X9.8564Y-5.0538
X9.8644Y-5.5798
X9.8664Y-6.6458
X9.8764Y-4.5678
X9.8764Y-6.5878
X9.9044Y-7.2798
X9.9064Y-4.3038
X9.9224Y-3.4598
X9.9344Y-4.2798
X9.9384Y-7.3038
X9.9564Y-4.3678
X9.9804Y-7.8038
X9.9904Y-4.2558
X9.9904Y-5.0298
X9.9964Y-6.6418
X10.0084Y-3.6238
X10.0204Y-5.0058
X10.0444Y-5.8038
X10.0484Y-7.0818
X10.0504Y-4.8278
X10.0644Y-5.1778
X10.1144Y-5.1118
X10.1384Y-4.3678
X10.1744Y-7.6378
X10.1751Y-7.1172
X10.1764Y-5.7798
X10.2104Y-6.6498
X10.2124Y-5.7558
X10.2304Y-3.5538
X10.2304Y-4.3038
X10.2304Y-7.3038
X10.2364Y-7.0778
X10.2384Y-6.2558
X10.2524Y-5.6598
X10.3164Y-6.4698
X10.3204Y-6.5998
X10.3284Y-5.9578
X10.3544Y-5.8838
X10.3584Y-7.4298
X10.3644Y-3.5298
X10.3644Y-4.2798
X10.3644Y-7.2798
X10.3904Y-5.1158
X10.3964Y-7.2558
X10.3984Y-4.2558
X10.4024Y-3.5058
X10.4104Y-3.8138
X10.4184Y-6.5538
X10.4204Y-4.8338
X10.4244Y-4.4218
X10.4264Y-5.5818
X10.4424Y-7.4238
X10.4524Y-5.3978
X10.5104Y-5.1138
X10.5204Y-3.7058
X10.5344Y-4.3638
X10.5424Y-6.2598
X10.5524Y-6.5058
X10.5844Y-6.4878
X10.6024Y-7.2558
X10.6044Y-5.0538
X10.6144Y-5.5838
X10.6404Y-6.6298
X10.6524Y-4.3038
X10.6564Y-7.2798
X10.6684Y-7.3618
X10.6724Y-3.4598
X10.6724Y-6.6398
X10.6884Y-4.2798
X10.6884Y-7.3038
X10.6944Y-7.5678
X10.7064Y-6.5798
X10.7264Y-4.3658
X10.7284Y-3.6278
X10.7324Y-7.8268
X10.7404Y-4.2558
X10.7404Y-5.0298
X10.7524Y-5.8838
X10.7704Y-5.0058
X10.7764Y-6.6558
X10.7924Y-6.4558
X10.7944Y-5.8038
X10.7964Y-4.8298
X10.7984Y-7.0838
X10.8184Y-5.1718
X10.8344Y-7.3658
X10.8444Y-5.6198
X10.8732Y-6.5538
X10.8804Y-4.3718
X10.8984Y-6.2178
X10.8984Y-6.6638
X10.9204Y-5.1138
X10.9224Y-6.6438
X10.9264Y-5.7798
X10.9264Y-7.6358
X10.9344Y-6.5878
X10.9364Y-7.9098
X10.9404Y-6.4558
X10.9464Y-6.8718
X10.9624Y-5.7558
X10.9804Y-3.5538
X10.9804Y-4.3038
X10.9804Y-7.3038
X10.9884Y-6.2758
X10.9904Y-7.0778
X11.0164Y-6.3498
X11.0164Y-6.5938
X11.0164Y-6.7578
X11.0324Y-5.8818
X11.0444Y-6.3318
X11.0664Y-7.1958
X11.0704Y-5.9578
X11.0784Y-6.9398
X11.1004Y-5.1118
X11.1104Y-6.5938
X11.1144Y-3.5298
X11.1144Y-4.2798
X11.1144Y-7.2798
X11.1184Y-6.9058
X11.1464Y-3.5058
X11.1464Y-4.2558
X11.1464Y-7.2558
X11.1684Y-3.8138
X11.1744Y-7.3318
X11.1764Y-4.8298
X11.1764Y-5.5798
X11.1764Y-6.5298
X11.1764Y-7.3838
X11.1944Y-7.4238
X11.1984Y-6.3018
X11.2044Y-5.3958
X11.2084Y-4.4178
X11.2524Y-4.3658
X11.2544Y-5.1098
X11.2584Y-3.7078
X11.2653Y-6.5044
X11.2731Y-6.4754
X11.2844Y-6.9118
X11.2884Y-6.9618
X11.2924Y-6.2608
X11.2964Y-6.3778
X11.3142Y-6.9901
X11.3264Y-6.3837
X11.3264Y-6.7118
X11.3504Y-6.4258
X11.3524Y-7.2558
X11.3544Y-5.0538
X11.3604Y-5.5818
X11.3744Y-4.5538
X11.3864Y-6.8318
X11.4004Y-6.5798
X11.4004Y-7.2798
X11.4044Y-4.3038
X11.4224Y-3.4598
X11.4344Y-4.2798
X11.4404Y-7.3038
X11.4484Y-7.5678
X11.4564Y-6.7618
X11.4584Y-6.6718
X11.4624Y-7.0958
X11.4644Y-3.8178
X11.4684Y-4.3678
X11.4724Y-6.5578
X11.4784Y-7.3438
X11.4804Y-5.7318
X11.4864Y-3.6238
X11.4904Y-4.2558
X11.4904Y-5.0298
X11.5044Y-5.8838
X11.5084Y-6.8418
X11.513Y-6.5565
X11.5204Y-5.0058
X11.5224Y-5.9898
X11.5254Y-7.4568
X11.5364Y-6.9798
X11.537Y-6.3905
X11.5444Y-5.8038
X11.5504Y-4.8298
X11.5564Y-7.8318
X11.561Y-6.4258
X11.5644Y-5.1698
X11.5664Y-6.8018
X11.5744Y-5.9278
X11.5764Y-6.3905
X11.5764Y-6.3305
X11.5896Y-6.7758
X11.5904Y-6.8238
X11.6064Y-5.6038
X11.6064Y-6.3278
X11.6064Y-6.3905
X11.6164Y-6.4698
X11.6204Y-4.3838
X11.6344Y-6.8878
X11.6464Y-7.3438
X11.6595Y-6.3907
X11.6604Y-6.3305
X11.6644Y-6.2198
X11.6704Y-7.3038
X11.6784Y-5.7798
X11.6824Y-7.6398
X11.6884Y-4.3318
X11.6924Y-7.3838
X11.695Y-7.2798
X11.6964Y-6.3305
X11.7004Y-6.3918
X11.7044Y-6.2713
X11.7143Y-7.2558
X11.7164Y-5.7558
X11.7304Y-3.5538
X11.7304Y-4.3038
X11.7304Y-7.3038
X11.7322Y-7.2315
X11.7491Y-6.3905
X11.7522Y-7.2075
X11.7524Y-6.3305
X11.7716Y-7.1835
X11.7964Y-5.9598
X11.8024Y-6.9158
X11.8064Y-6.3918
X11.8404Y-7.1658
X11.8424Y-5.5878
X11.8444Y-5.1178
X11.8462Y-6.3908
X11.8644Y-3.5298
X11.8644Y-4.2798
X11.8644Y-7.2798
X11.8653Y-7.1491
X11.8687Y-6.414
X11.8824Y-7.9098
X11.8864Y-7.1278
X11.8904Y-6.7718
X11.8964Y-3.5058
X11.8964Y-7.2558
X11.8984Y-4.2558
X11.9084Y-3.8098
X11.9224Y-5.6118
X11.9244Y-4.8278
X11.9324Y-4.4238
X11.9324Y-7.0818
X11.9504Y-6.4258
X11.9524Y-4.9098
X11.9544Y-5.2418
X11.9804Y-7.3558
X11.9904Y-5.8698
X11.9944Y-3.7078
X11.9944Y-7.4198
X12.0144Y-5.1078
X12.0224Y-4.3618
X12.0282Y-6.6601
X12.0284Y-5.9388
X12.0284Y-6.6058
X12.0364Y-7.8338
X12.0374Y-6.4532
X12.0564Y-6.3518
X12.0704Y-6.2198
X12.0784Y-6.6238
X12.0844Y-7.0758
X12.0984Y-7.2558
X12.1044Y-5.0538
X12.1144Y-6.5618
X12.1204Y-6.4558
X12.1444Y-5.7318
X12.1464Y-6.7658
X12.1564Y-4.3038
X12.1564Y-7.2798
X12.1615Y-6.6398
X12.1644Y-7.1078
X12.1667Y-6.7238
X12.1724Y-3.4598
X12.1884Y-4.2798
X12.1884Y-4.3278
X12.1944Y-6.3738
X12.1944Y-7.3038
X12.2004Y-6.5538
X12.2064Y-5.6328
X12.2284Y-3.6178
X12.2304Y-7.5438
X12.2404Y-4.2558
X12.2404Y-4.3518
X12.2404Y-4.4118
X12.2404Y-5.0298
X12.2424Y-7.0548
X12.2464Y-6.2878
X12.2464Y-6.4438
X12.2564Y-5.5878
X12.2604Y-5.5398
X12.2704Y-5.0058
X12.2739Y-6.3398
X12.2824Y-6.9498
X12.2864Y-5.5178
X12.2944Y-7.1078
X12.2984Y-4.0778
X12.2984Y-7.8298
X12.3004Y-7.3698
X12.3064Y-7.0478
X12.3184Y-6.2378
X12.3244Y-5.1738
X12.3344Y-6.5298
X12.3604Y-5.5778
X12.3604Y-5.8898
X12.3604Y-6.0758
X12.3664Y-6.5058
X12.3724Y-6.6338
X12.3764Y-5.4838
X12.3864Y-3.7458
X12.3964Y-6.5298
X12.3964Y-6.6151
X12.4204Y-6.5538
X12.4204Y-6.6418
X12.4344Y-5.9078
X12.4404Y-7.0478
X12.4464Y-6.7218
X12.4564Y-5.2978
X12.4644Y-6.2758
X12.4784Y-4.4338
X12.4804Y-3.5538
X12.4804Y-7.3038
X12.5064Y-5.5778
X12.5624Y-6.8338
X12.5804Y-5.5758
X12.6104Y-4.4338
X12.6104Y-6.4018
X12.6104Y-6.6358
X12.6124Y-6.8008
X12.6144Y-3.5298
X12.6144Y-6.1538
X12.6144Y-7.2798
X12.6262Y-7.0908
X12.6384Y-4.0038
X12.6464Y-7.2558
X12.6484Y-3.5058
X12.6604Y-7.4178
X12.6724Y-7.0608
X12.6764Y-4.0778
X12.6764Y-4.8278
X12.6764Y-5.5538
X12.6884Y-6.1578
X12.7024Y-6.9058
X12.7164Y-3.7018
X12.7324Y-7.3598
X12.7429Y-7.1979
X12.7604Y-5.9178
X12.7624Y-5.8038
X12.7624Y-5.0058
X12.7704Y-7.2098
X12.7764Y-4.4298
X12.7764Y-7.8258
X12.7794Y-3.9848
X12.7864Y-5.0298
X12.7947Y-7.2321
X12.811Y-5.0538
X12.8164Y-4.3378
X12.8464Y-5.5938
X12.8524Y-5.6998
X12.8564Y-7.2558
X12.8574Y-6.5858
X12.8584Y-6.4158
X12.8624Y-4.8298
X12.8824Y-7.2318
X12.8924Y-7.9098
X12.8964Y-5.7798
X12.9064Y-7.2798
X12.9224Y-3.4598
X12.9264Y-3.9878
X12.9284Y-5.7558
X12.9384Y-7.3038
X12.9444Y-7.3758
X12.9524Y-6.5058
X12.9744Y-6.0638
X12.9768Y-6.5298
X12.9774Y-6.7708
X12.9844Y-3.6378
X12.9864Y-6.3738
X13.0004Y-6.5538
X13.0258Y-4.4068
X13.0284Y-7.2258
X13.0424Y-4.3818
X13.0424Y-5.0538
X13.0464Y-7.8628
X13.0504Y-4.0798
X13.0504Y-5.9598
X13.0524Y-4.4318
X13.059Y-6.2364
X13.0624Y-6.8658
X13.1064Y-6.0598
X13.1104Y-4.1658
X13.1184Y-4.4338
X13.1224Y-6.3718
X13.1264Y-5.9258
X13.1284Y-6.2438
X13.1324Y-7.3618
X13.1384Y-6.6298
X13.1464Y-4.6158
X13.1464Y-5.4138
X13.1484Y-7.2158
X13.1524Y-5.6878
X13.1524Y-5.8518
X13.1604Y-6.0898
X13.1624Y-5.2118
X13.1644Y-4.3338
X13.1784Y-5.0298
X13.1844Y-7.4818
X13.1884Y-4.8378
X13.2077Y-5.0058
X13.2084Y-3.9018
X13.2224Y-5.9018
X13.2304Y-3.5538
X13.2304Y-6.5538
X13.2304Y-7.3038
X13.2444Y-5.1738
X13.2475Y-4.4068
X13.2504Y-5.1118
X13.2824Y-7.9098
X13.3024Y-4.0798
X13.3304Y-4.6158
X13.3404Y-4.4338
X13.3505Y-7.2844
X13.3596Y-7.2558
X13.3605Y-4.357
X13.3644Y-3.5298
X13.3644Y-6.5298
X13.3684Y-3.7318
X13.3744Y-5.7444
X13.3764Y-5.6718
X13.3772Y-3.4818
X13.3964Y-6.5058
X13.3984Y-5.6978
X13.3984Y-3.5058
X13.4084Y-5.6258
X13.4218Y-6.5538
X13.4224Y-4.3818
X13.4244Y-7.4278
X13.4327Y-3.5083
X13.4454Y-4.4068
X13.4457Y-6.5298
X13.4524Y-7.2278
X13.4784Y-4.4338
X13.4784Y-5.8418
X13.4804Y-5.4118
X13.4824Y-6.7198
X13.4833Y-5.702
X13.4864Y-6.0198
X13.4864Y-6.2898
X13.4924Y-3.7098
X13.5058Y-5.7585
X13.5084Y-5.3818
X13.5124Y-3.9838
X13.5244Y-6.4578
X13.5264Y-5.8058
X13.5444Y-6.5058
X13.5474Y-3.5338
X13.5744Y-4.8258
X13.5784Y-6.5538
X13.5944Y-4.4338
X13.5984Y-4.6218
X13.5999Y-5.0538
X13.6004Y-5.5031
X13.6044Y-4.2618
X13.6104Y-4.0438
X13.6239Y-5.0298
X13.6634Y-3.5648
X13.6724Y-3.4598
X13.6744Y-4.8278
X13.6744Y-5.4718
X13.6764Y-5.1198
X13.6824Y-5.2718
X13.6824Y-6.1958
X13.6864Y-4.9058
X13.6904Y-4.7918
X13.6914Y-3.5888
X13.6984Y-7.5518
X13.7084Y-4.9658
X13.7164Y-5.8598
X13.7164Y-6.6558
X13.7184Y-6.8798
X13.7224Y-5.0058
X13.733Y-3.4843
X13.7704Y-4.0798
X13.7704Y-4.2578
X13.7724Y-4.4338
X13.7724Y-4.6118
X13.8004Y-3.9398
X13.8064Y-7.8838
X13.8224Y-4.4338
X13.8244Y-5.9908
X13.8344Y-5.1118
X13.8384Y-4.9478
X13.8434Y-3.5398
X13.8444Y-3.6518
X13.8464Y-4.6478
X13.8464Y-5.2278
X13.8484Y-4.1638
X13.8704Y-6.6358
X13.8764Y-5.1338
X13.8904Y-7.8938
X13.8924Y-3.7518
X13.9004Y-5.4098
X13.9024Y-4.4338
X13.9044Y-5.8478
X13.9104Y-4.4958
X13.9104Y-4.8478
X13.9424Y-4.3378
X13.9424Y-5.1338
X13.9444Y-7.3398
X13.9459Y-3.5973
X13.9728Y-5.3858
X13.9804Y-5.0538
X13.9804Y-5.8038
X13.9804Y-5.9178
X13.9804Y-6.5538
X13.9944Y-4.4318
X14.0524Y-3.5198
X14.0684Y-6.2358
X14.0784Y-6.9658
X14.0799Y-4.4101
X14.0844Y-5.1978
X14.0924Y-5.6698
X14.1049Y-3.5528
X14.1124Y-6.7178
X14.1135Y-4.3048
X14.1144Y-5.0538
X14.1144Y-5.8038
X14.1144Y-6.5538
X14.1144Y-7.3038
X14.1196Y-3.9159
X14.1324Y-4.4558
X14.1324Y-5.9458
X14.1344Y-6.5058
X14.1404Y-3.7478
X14.1484Y-7.2798
X14.1521Y-4.3878
X14.1524Y-3.6338
X14.1524Y-5.0078
X14.1564Y-5.7798
X14.1764Y-4.5578
X14.1764Y-5.1718
X14.1804Y-7.4278
X14.2104Y-4.3398
X14.2524Y-5.9618
X14.2584Y-5.0458
X14.2664Y-5.7978
X14.3064Y-3.7038
X14.3504Y-7.8658
X14.3564Y-3.4918
X14.3564Y-7.1858
X14.3944Y-4.1858
X14.3984Y-4.9358
X14.3984Y-5.6878
X14.3984Y-6.4338
T3
X5.7104Y-7.5398
X4.0444Y-6.5118
X7.0204Y-7.3698
X6.7384Y-6.2798
X5.5944Y-7.4078
X10.1144Y-6.7798
X6.2204Y-3.7918
X6.3484Y-7.3878
X10.1104Y-6.6298
X7.0104Y-7.7558
X6.3664Y-7.5578
X7.1384Y-7.7558
T4
X2.703Y-3.5298
X2.703Y-4.1105
X2.8014Y-4.1105
X2.8999Y-3.5298
X2.8999Y-4.1105
X13.9525Y-3.5288
X13.9525Y-4.1095
X14.0509Y-4.1095
X14.1494Y-3.5288
X14.1494Y-4.1095
T2
G00X3.0024Y-3.4564
M15
G01X3.0024Y-3.48
M16
G05
G00X3.0024Y-3.6111
M15
G01X3.0024Y-3.6544
M16
G05
G00X3.3425Y-3.4564
M15
G01X3.3425Y-3.48
M16
G05
G00X3.3425Y-3.6111
M15
G01X3.3425Y-3.6544
M16
G05
T5
G00X13.606Y-7.1858
M15
G01X13.7169Y-7.1858
M16
G05
G00X9.746Y-7.5588
M15
G01X9.8569Y-7.5588
M16
G05
G00X12.867Y-4.1863
M15
G01X12.9779Y-4.1863
M16
G05
G00X3.8675Y-4.1853
M15
G01X3.9784Y-4.1853
M16
G05
G00X3.3045Y-7.5608
M15
G01X3.4154Y-7.5608
M16
G05
G00X13.617Y-5.6853
M15
G01X13.7279Y-5.6853
M16
G05
G00X3.384Y-5.3068
M15
G01X3.4949Y-5.3068
M16
G05
G00X8.5895Y-7.5588
M15
G01X8.7004Y-7.5588
M16
G05
G00X12.5845Y-5.3113
M15
G01X12.6954Y-5.3113
M16
G05
T0
M30
